# xmcd
#
# Track frame offsets:
#	150
#	31305
#	53111
#	91224
#	136958
#	163437
#	185576
#
# Disc length: 2965 seconds
#
# Revision: 1
# Processed by: cddbd v1.5.1PL0 Copyright (c) Steve Scherf et al.
# Submitted via: audiograbber 1.82.01
#
DISCID=5c0b9307
DTITLE=Led Zeppelin - 1969-01-10 - San Francisco Fillmore West - "For Your Love
DTITLE=" - Disc 2
DYEAR=1900
DGENRE=
TTITLE0=Led Zeppelin - White Summer
TTITLE1=Led Zeppelin - Killing Floor
TTITLE2=Led Zeppelin - You Shook me
TTITLE3=Led Zeppelin - Pat's Delight
TTITLE4=Led Zeppelin - Babe, I'm Gonna Leave You
TTITLE5=Led Zeppelin - Communication Breakdown
TTITLE6=Led Zeppelin - For Your Love
EXTD=
EXTT0=
EXTT1=
EXTT2=
EXTT3=
EXTT4=
EXTT5=
EXTT6=
PLAYORDER=
